<?xml version="1.0" encoding="UTF-8"?>
<svg width="491px" height="573px" viewBox="0 0 491 573" version="1.1" xmlns="http://www.w3.org/2000/svg" xmlns:xlink="http://www.w3.org/1999/xlink">
    <!-- Generator: Sketch 50.2 (55047) - http://www.bohemiancoding.com/sketch -->
    <title>box pearl</title>
    <desc>Created with Sketch.</desc>
    <defs>
        <rect id="path-1" x="0" y="0" width="491" height="578"></rect>
        <path d="M622.452952,250.597699 C622.390546,250.847023 622.176583,251.04292 621.8913,251.04292 C621.606016,251.04292 621.374223,250.847023 621.320732,250.597699 C619.822993,243.153594 614.108404,237.597229 607.404237,237.089676 C607.110038,237.062963 606.878245,236.813639 606.86933,236.528697 C606.86933,236.234851 607.110038,235.994431 607.413152,235.949909 C614.090573,235.46907 619.822993,229.912704 621.320732,222.459695 C621.365308,222.192562 621.606016,222.014474 621.882385,221.98776 C622.149838,222.014474 622.408376,222.192562 622.444037,222.4686 C623.959607,229.912704 629.674196,235.451261 636.351618,235.967718 C636.672562,235.976622 636.904355,236.225946 636.91327,236.519793 C636.91327,236.813639 636.654732,237.062963 636.360533,237.098581 C629.665281,237.588324 623.932861,243.135785 622.452952,250.597699 Z M42.3526429,250.597699 C42.2902371,250.847023 42.0762743,251.04292 41.7909906,251.04292 C41.5057069,251.04292 41.2739139,250.847023 41.2204232,250.597699 C39.7226837,243.153594 34.0080945,237.597229 27.3039274,237.089676 C27.0097286,237.062963 26.7779355,236.813639 26.7690204,236.528697 C26.7690204,236.234851 27.0097286,235.994431 27.3128425,235.949909 C33.9902643,235.46907 39.7226837,229.912704 41.2204232,222.459695 C41.2649988,222.192562 41.5057069,222.014474 41.7820755,221.98776 C42.049529,222.014474 42.3080673,222.192562 42.3437278,222.4686 C43.8592975,229.912704 49.5738867,235.451261 56.2513085,235.967718 C56.5722526,235.976622 56.8040457,236.225946 56.8129608,236.519793 C56.8129608,236.813639 56.5544224,237.062963 56.2602236,237.098581 C49.5649716,237.588324 43.8325521,243.135785 42.3526429,250.597699 Z M617.066701,49.2925604 C617.066701,18.8728509 600.110286,0.010525851 567.166994,0.010525851 L94.1402499,0 C61.1864201,0 44.2510813,18.8517992 44.2510813,49.2715087 C44.2510813,89.7328801 37.3272994,199.490659 0,236.29956 C37.3272994,273.508444 44.2510813,384.25659 44.2510813,424.717961 C44.2510813,455.137671 61.1758816,473.999996 94.1297114,473.999996 L567.156456,473.999996 C600.110286,474.010521 617.066701,455.148196 617.066701,424.728487 C617.066701,384.267116 626.641085,273.51897 664,236.699543 C626.641085,199.501185 617.066701,89.7434059 617.066701,49.2925604 Z" id="path-3"></path>
    </defs>
    <g id="Awards" stroke="none" stroke-width="1" fill="none" fill-rule="evenodd">
        <g id="Awards---desktop" transform="translate(-879.000000, -1581.000000)">
            <g id="Golden-Ball" transform="translate(205.000000, 1425.000000)">
                <g id="shape" transform="translate(669.000000, 151.000000)">
                    <g id="box-pearl" transform="translate(5.000000, 0.000000)">
                        <mask id="mask-2" fill="white">
                            <use xlink:href="#path-1"></use>
                        </mask>
                        <g id="Mask"></g>
                        <g id="box" mask="url(#mask-2)">
                            <g transform="translate(0.000000, 5.000000)">
                                <path d="M587.62121,342.156715 C548.518437,303.651793 539.916161,191.200607 539.916161,148.888198 C539.916161,117.085713 522.167981,97.356005 487.670482,97.356005 L2.21578705,97.356005 C-32.2922259,97.356005 -50.0298913,117.085713 -50.0298913,148.888198 C-50.0298913,191.200607 -57.2637466,303.651793 -96.356005,342.156715 C-57.2637466,381.060217 -50.0298913,494.511403 -50.0298913,536.823812 C-50.0298913,568.626297 -32.2922259,588.356005 2.21578705,588.356005 L486.291547,588.356005 C520.789046,588.356005 538.537226,568.626297 538.537226,536.823812 C538.537226,494.511403 548.518437,381.060217 587.62121,342.555295 C587.926125,342.366494 585.073626,342.366494 584.863339,342.156715 L587.62121,342.156715 Z" id="Fill-1" fill="#BDB289" transform="translate(245.643995, 342.856005) rotate(90.000000) translate(-245.643995, -342.856005) "></path>
                                <g id="image" stroke-width="1" fill="none" transform="translate(245.643995, 344.356005) rotate(90.000000) translate(-245.643995, -344.356005) translate(-86.356005, 107.356005)">
                                    <mask id="mask-4" fill="white">
                                        <use xlink:href="#path-3"></use>
                                    </mask>
                                    <g id="Mask">
                                        <use fill="#F1EBE3" xlink:href="#path-3"></use>
                                        <use fill-opacity="0.5" fill="#FFFFFF" xlink:href="#path-3"></use>
                                    </g>
                                </g>
                            </g>
                        </g>
                    </g>
                </g>
            </g>
        </g>
    </g>
</svg>